<svg width="24" height="24" fill="none" xmlns="http://www.w3.org/2000/svg"><path fill-rule="evenodd" clip-rule="evenodd" d="M12 0C5.373 0 0 5.373 0 12s5.373 12 12 12 12-5.373 12-12S18.627 0 12 0zM9.362 5.639c.682-.031.9-.039 2.639-.039h-.002c1.738 0 1.956.008 2.638.039.682.03 1.147.139 1.555.297.421.163.777.382 1.133.738s.575.713.739 1.134c.157.407.265.872.297 1.553.031.683.039.9.039 2.639 0 1.738-.008 1.956-.039 2.639-.032.68-.14 1.146-.297 1.553-.164.42-.383.778-.739 1.134a3.13 3.13 0 01-1.133.738c-.407.158-.872.266-1.554.297-.682.031-.9.04-2.638.04s-1.956-.009-2.639-.04c-.681-.03-1.146-.139-1.554-.297a3.133 3.133 0 01-1.133-.738 3.137 3.137 0 01-.738-1.134c-.158-.407-.266-.872-.297-1.554-.031-.682-.039-.9-.039-2.638s.008-1.956.039-2.639c.03-.681.138-1.146.297-1.553.164-.421.383-.778.739-1.134a3.134 3.134 0 011.133-.738c.407-.158.872-.266 1.554-.297z" fill="#A99"/><path fill-rule="evenodd" clip-rule="evenodd" d="M11.427 6.754H12c1.709 0 1.911.006 2.586.036.624.029.963.133 1.188.22.299.117.512.255.736.48.224.223.362.437.479.735.087.226.192.564.22 1.188.03.675.037.878.037 2.586 0 1.708-.006 1.91-.037 2.585-.029.624-.133.963-.22 1.188a1.978 1.978 0 01-.48.735 1.98 1.98 0 01-.735.48c-.225.087-.564.191-1.188.22-.675.03-.877.037-2.586.037-1.71 0-1.912-.007-2.587-.037-.624-.03-.962-.133-1.188-.221a1.983 1.983 0 01-.736-.479 1.984 1.984 0 01-.479-.735c-.087-.226-.192-.564-.22-1.188-.03-.675-.037-.878-.037-2.587s.006-1.91.037-2.585c.028-.624.133-.963.22-1.188.116-.3.255-.512.48-.736.223-.224.436-.363.735-.48.226-.087.564-.191 1.188-.22.59-.027.82-.035 2.013-.036v.002zm3.99 1.062a.768.768 0 100 1.537.768.768 0 000-1.537zM8.714 12a3.287 3.287 0 116.574 0 3.287 3.287 0 01-6.574 0z" fill="#A99"/><path d="M12 9.867a2.133 2.133 0 110 4.267 2.133 2.133 0 010-4.267z" fill="#A99"/></svg>