<svg width="205" height="66" fill="none" xmlns="http://www.w3.org/2000/svg"><path d="M47.22 57.074L29.032 40.15 11.006 57.074H4.13l21.707-20.255L5.593 18.014h7.308l16.672 15.527 16.51-15.526h6.875L32.767 36.819l21.869 20.255H47.22zM168.256 22.85v29.388l5.251 4.836v-39.06l-5.251 4.836zm8.718.376h23.895v-5.211h-23.895v5.21zm11.947-3.973c.761 0 1.378.612 1.378 1.367 0 .756-.617 1.368-1.378 1.368a1.373 1.373 0 01-1.378-1.368c0-.755.617-1.367 1.378-1.367zm-11.947 37.821h23.895v-5.212h-23.895v5.212zm11.947-3.974c.761 0 1.378.613 1.378 1.368 0 .755-.617 1.368-1.378 1.368a1.373 1.373 0 01-1.378-1.368c0-.756.617-1.368 1.378-1.368zm11.948-18.161h-23.895v5.21h23.895v-5.21zm-11.948 3.973a1.373 1.373 0 01-1.378-1.368c0-.755.617-1.368 1.378-1.368.761 0 1.378.612 1.378 1.368 0 .756-.616 1.368-1.378 1.368zm-31.926-1.325c0-.208-.006-.414-.014-.62h-30.679v1.481h30.67c.014-.284.023-.57.023-.86z" fill="#fff"/><path d="M162.245 37.318c0-11.336-7.902-19.126-18.783-19.126h-22.41V57.25h22.41c10.881 0 18.783-8.596 18.783-19.933zM143.462 52.04h-17.16V23.404h17.16c7.6 0 13.242 5.566 13.519 13.563a15.897 15.897 0 01-.009 1.481c-.383 7.837-5.988 13.591-13.51 13.591z" fill="#fff"/><path d="M139.079 29.413h-6.349a.703.703 0 00-.706.7c0 .387.316.7.706.7h6.349a.703.703 0 00.705-.7c0-.386-.316-.7-.705-.7zm-79.581-1.16h5.501c.318-3.006 2.483-5.014 6.075-5.014h28.094v-5.211H71.073c-7.331 0-11.373 4.336-11.575 10.225zM89.37 51.875H60.084v5.212H89.37c7.576 0 11.419-4.455 11.678-10.514h-5.014c-.35 3.174-2.64 5.302-6.664 5.302zm0-17.085H71.02c-3.486 0-5.745-1.919-6.032-5.056H59.53c.451 5.717 4.734 9.892 11.435 9.892H89.37c4.107 0 6.46 1.838 6.691 5.466h4.983c-.295-6.82-4.33-10.302-11.674-10.302zm37.395 26.984l.746-3.333h-4.85l.747 3.333h3.357zm21.636 0l.746-3.333h-4.85l.746 3.333h3.358z" fill="#fff"/><path d="M116.673 4.226h-12.306l-2.735 10.27h17.776l-2.735-10.27z" fill="#E95627"/><path d="M113.146 18.015h-5.251v39.059h5.251v-39.06z" fill="#fff"/></svg>