<svg width="24" height="24" fill="none" xmlns="http://www.w3.org/2000/svg"><path fill-rule="evenodd" clip-rule="evenodd" d="M12 0C5.373 0 0 5.373 0 12s5.373 12 12 12 12-5.373 12-12S18.627 0 12 0zM5 11.98C5 8.131 8.14 5 12 5s7 3.131 7 6.98c0 .545-.046.987-.148 1.43l-.001.007c0 .002-.05.206-.079.295-.173.552-.486 1.011-.906 1.329a2.368 2.368 0 01-1.609.47 2.277 2.277 0 01-1.749-1.042 3.54 3.54 0 01-6.05-2.488A3.54 3.54 0 0112 8.449a3.54 3.54 0 013.54 3.531v1.138c.004.664.45.936.832.966.38.03.886-.19 1.062-.911.086-.395.13-.796.13-1.193 0-3.06-2.496-5.549-5.564-5.549-3.069 0-5.565 2.49-5.565 5.55 0 3.059 2.496 5.548 5.565 5.548a5.553 5.553 0 003.004-.88l.016-.01.943 1.094-.02.013A6.973 6.973 0 0112 18.96c-3.86 0-7-3.13-7-6.98z" fill="#272323"/><path fill-rule="evenodd" clip-rule="evenodd" d="M14 12c0 1.103-.897 2-2 2s-2-.897-2-2 .897-2 2-2 2 .897 2 2z" fill="#272323"/></svg>