<svg width="24" height="24" fill="none" xmlns="http://www.w3.org/2000/svg"><path fill-rule="evenodd" clip-rule="evenodd" d="M12 0c6.627 0 12 5.373 12 12s-5.373 12-12 12S0 18.627 0 12 5.373 0 12 0zm3.197 10.48c-.058-.475-.204-.847-.463-1.177-.336-.425-.765-.679-1.401-.83-.415-.1-.582-.089-.732.048-.14.128-.167.385-.06.552.075.12.162.164.402.211.32.06.542.136.744.251.428.247.627.633.648 1.26.01.293.035.383.138.488.19.19.529.153.672-.075.053-.086.06-.123.066-.323a3.167 3.167 0 00-.014-.406zm.006-2.91c1.017.822 1.585 1.991 1.67 3.444.035.572-.012.758-.214.865a.43.43 0 01-.53-.083c-.094-.096-.13-.228-.129-.46.004-.646-.144-1.366-.386-1.866a3.602 3.602 0 00-1.255-1.438 3.79 3.79 0 00-1.718-.586c-.396-.035-.538-.102-.614-.292a.53.53 0 01.02-.398.539.539 0 01.253-.195c.088-.025.6.02.878.075.76.154 1.452.472 2.025.934zm3.523 9.038a1.593 1.593 0 00-.142-.285c-.298-.45-1.902-1.705-2.702-2.115-.457-.235-.796-.313-1.047-.24-.27.076-.412.202-.865.764-.182.225-.369.436-.419.47a1.103 1.103 0 01-.535.154c-.395-.003-1.113-.259-1.665-.596-.429-.26-.978-.728-1.4-1.19-.497-.543-.836-1.023-1.103-1.563-.346-.695-.434-1.12-.29-1.43a1.15 1.15 0 01.105-.188c.021-.024.244-.206.49-.406.483-.384.562-.472.652-.735.113-.334.082-.676-.093-1.02a14.61 14.61 0 00-.743-1.198c-.34-.484-1.182-1.518-1.35-1.658-.304-.246-.692-.289-1.12-.123-.453.176-1.3.859-1.663 1.335-.327.432-.453.738-.472 1.141-.016.332.012.47.188.895 1.37 3.33 3.417 5.989 6.228 8.1 1.469 1.103 2.992 1.942 4.571 2.516.921.335 1.322.351 1.793.076.199-.118.692-.624.966-.991.455-.612.623-.895.67-1.12a1.29 1.29 0 00-.054-.593zM18.121 9.1a6.65 6.65 0 01.457 2.248c.005.162.002.46-.008.66-.022.387-.043.464-.154.566-.179.168-.527.127-.66-.075-.068-.108-.078-.187-.065-.639.039-1.334-.231-2.38-.882-3.424-.777-1.254-1.94-2.099-3.45-2.512a8.573 8.573 0 00-1.216-.237c-.33-.043-.401-.062-.482-.112-.246-.157-.25-.555-.005-.714.127-.084.22-.088.631-.035 1.207.15 2.283.509 3.168 1.05.634.39 1.033.739 1.548 1.35.544.653.833 1.135 1.118 1.874z" fill="#272323"/></svg>