<svg width="24" height="24" viewBox="0 0 24 24" fill="none" xmlns="http://www.w3.org/2000/svg">
<path fill-rule="evenodd" clip-rule="evenodd" d="M12 0C5.3726 0 0 5.3726 0 12C0 18.6274 5.3726 24 12 24C18.6274 24 24 18.6274 24 12C24 5.3726 18.6274 0 12 0ZM9.36165 5.63865C10.0443 5.6076 10.2625 5.6 12.0006 5.6H11.9986C13.7373 5.6 13.9546 5.6076 14.6373 5.63865C15.3186 5.66985 15.7839 5.77775 16.192 5.936C16.6133 6.09935 16.9693 6.318 17.3253 6.674C17.6814 7.02975 17.9 7.3868 18.064 7.80775C18.2213 8.2147 18.3293 8.67975 18.3613 9.3611C18.392 10.0438 18.4 10.2619 18.4 12C18.4 13.7382 18.392 13.9558 18.3613 14.6385C18.3293 15.3196 18.2213 15.7848 18.064 16.1919C17.9 16.6126 17.6814 16.9697 17.3253 17.3255C16.9697 17.6815 16.6132 17.9007 16.1924 18.0641C15.7851 18.2224 15.3196 18.3302 14.6383 18.3615C13.9556 18.3925 13.7381 18.4002 11.9998 18.4002C10.2618 18.4002 10.0438 18.3925 9.3611 18.3615C8.6799 18.3302 8.2147 18.2224 7.8075 18.0641C7.3868 17.9007 7.02975 17.6815 6.67415 17.3255C6.31825 16.9697 6.0996 16.6126 5.936 16.1917C5.77785 15.7847 5.67 15.3197 5.63865 14.6383C5.60775 13.9557 5.6 13.7382 5.6 12C5.6 10.2619 5.608 10.0437 5.63855 9.36095C5.6692 8.6799 5.7772 8.2147 5.93585 7.8076C6.09985 7.3868 6.31855 7.02975 6.67455 6.674C7.0303 6.31815 7.38735 6.09945 7.8083 5.936C8.21525 5.77775 8.6803 5.66985 9.36165 5.63865Z" fill="#AA9999"/>
<path fill-rule="evenodd" clip-rule="evenodd" d="M11.4265 6.75355C11.538 6.7534 11.6579 6.75345 11.7873 6.7535L12.0007 6.75355C13.7095 6.75355 13.912 6.7597 14.5868 6.79035C15.2108 6.8189 15.5495 6.92315 15.7751 7.01075C16.0738 7.12675 16.2867 7.26545 16.5106 7.48945C16.7346 7.71345 16.8732 7.9268 16.9895 8.22545C17.0771 8.4508 17.1815 8.78945 17.2099 9.41345C17.2406 10.0882 17.2472 10.2908 17.2472 11.9988C17.2472 13.7069 17.2406 13.9095 17.2099 14.5842C17.1814 15.2082 17.0771 15.5469 16.9895 15.7722C16.8735 16.0709 16.7346 16.2836 16.5106 16.5074C16.2866 16.7314 16.0739 16.8701 15.7751 16.9861C15.5498 17.0741 15.2108 17.1781 14.5868 17.2066C13.9121 17.2373 13.7095 17.244 12.0007 17.244C10.2917 17.244 10.0892 17.2373 9.41446 17.2066C8.79046 17.1778 8.45181 17.0736 8.22606 16.986C7.92741 16.87 7.71406 16.7313 7.49006 16.5073C7.26606 16.2833 7.12741 16.0705 7.01111 15.7717C6.92351 15.5464 6.81911 15.2077 6.79071 14.5837C6.76006 13.909 6.75391 13.7063 6.75391 11.9972C6.75391 10.2882 6.76006 10.0866 6.79071 9.41185C6.81926 8.78785 6.92351 8.4492 7.01111 8.2236C7.12711 7.9249 7.26606 7.7116 7.49006 7.4876C7.71406 7.2636 7.92741 7.1249 8.22606 7.00865C8.45166 6.92065 8.79046 6.81665 9.41446 6.78795C10.0049 6.7613 10.2337 6.7533 11.4265 6.75195V6.75355ZM15.417 7.81625C14.993 7.81625 14.6489 8.15985 14.6489 8.584C14.6489 9.008 14.993 9.352 15.417 9.352C15.841 9.352 16.185 9.008 16.185 8.584C16.185 8.16 15.841 7.816 15.417 7.816V7.81625ZM8.71396 12.0003C8.71396 10.1853 10.1855 8.71365 12.0005 8.7136C13.8156 8.7136 15.2868 10.1852 15.2868 12.0003C15.2868 13.8154 13.8157 15.2864 12.0007 15.2864C10.1856 15.2864 8.71396 13.8154 8.71396 12.0003Z" fill="#AA9999"/>
<path d="M12.0005 9.86719C13.1787 9.86719 14.1339 10.8223 14.1339 12.0005C14.1339 13.1787 13.1787 14.1339 12.0005 14.1339C10.8223 14.1339 9.86719 13.1787 9.86719 12.0005C9.86719 10.8223 10.8223 9.86719 12.0005 9.86719Z" fill="#AA9999"/>
</svg>
