<svg width="205" height="66" viewBox="0 0 205 66" fill="none" xmlns="http://www.w3.org/2000/svg">
<path d="M47.22 57.0736L29.0317 40.1499L11.0059 57.0736H4.13147L25.8381 36.8188L5.59303 18.0145H12.9008L29.5729 33.5415L46.0831 18.0145H52.9577L32.7669 36.8188L54.6356 57.0736H47.22Z" fill="white"/>
<path d="M168.256 22.8497V52.2384L173.507 57.0736V51.8621V23.2261V18.0143L168.256 22.8497Z" fill="white"/>
<path d="M176.974 23.2259H200.869V18.0145H176.974V23.2259ZM188.921 19.2525C189.682 19.2525 190.299 19.8648 190.299 20.6203C190.299 21.3756 189.682 21.9881 188.921 21.9881C188.16 21.9881 187.543 21.3756 187.543 20.6203C187.543 19.8646 188.16 19.2525 188.921 19.2525Z" fill="white"/>
<path d="M176.974 57.0736H200.869V51.8623H176.974V57.0736ZM188.921 53.1003C189.682 53.1003 190.299 53.7126 190.299 54.4679C190.299 55.2234 189.682 55.8358 188.921 55.8358C188.16 55.8358 187.543 55.2234 187.543 54.4679C187.543 53.7125 188.16 53.1003 188.921 53.1003Z" fill="white"/>
<path d="M200.869 34.9386H176.974V40.1498H200.869V34.9386ZM188.921 38.9117C188.16 38.9117 187.543 38.2993 187.543 37.544C187.543 36.7885 188.16 36.1762 188.921 36.1762C189.682 36.1762 190.299 36.7885 190.299 37.544C190.299 38.2995 189.683 38.9117 188.921 38.9117Z" fill="white"/>
<path d="M156.995 37.5874C156.995 37.3788 156.989 37.1728 156.981 36.9672H126.302V38.4483H156.972C156.986 38.1638 156.995 37.8773 156.995 37.5874Z" fill="white"/>
<path d="M162.245 37.3181C162.245 25.9823 154.343 18.1916 143.462 18.1916H121.052V57.2507H143.462C154.343 57.2507 162.245 48.6549 162.245 37.3181ZM143.462 52.039H126.302V38.4483V36.9672V23.4036H143.462C151.062 23.4036 156.704 28.9703 156.981 36.9672C156.989 37.1728 156.995 37.3786 156.995 37.5874C156.995 37.8771 156.986 38.1638 156.972 38.4483C156.589 46.2853 150.984 52.039 143.462 52.039Z" fill="white"/>
<path d="M139.079 29.4129H132.73C132.34 29.4129 132.024 29.7265 132.024 30.1132C132.024 30.5 132.34 30.8134 132.73 30.8134H139.079C139.468 30.8134 139.784 30.5 139.784 30.1132C139.784 29.7265 139.468 29.4129 139.079 29.4129Z" fill="white"/>
<path d="M59.498 28.2527H64.999C65.3171 25.2469 67.482 23.239 71.0735 23.239H99.1675V18.0276H71.0735C63.7415 18.0276 59.6999 22.3638 59.498 28.2527Z" fill="white"/>
<path d="M89.3698 51.875H60.0845V57.0865H89.3698C96.9457 57.0865 100.789 52.6317 101.048 46.5728H96.0335C95.6838 49.7472 93.3942 51.875 89.3698 51.875Z" fill="white"/>
<path d="M89.3698 34.7902H71.0191C67.5339 34.7902 65.2746 32.8715 64.9881 29.7336H59.5297C59.9812 35.4513 64.2645 39.6257 70.965 39.6257H89.3698C93.4774 39.6257 95.83 41.4638 96.0614 45.0918H101.044C100.749 38.2722 96.7134 34.7902 89.3698 34.7902Z" fill="white"/>
<path d="M126.765 61.7736L127.511 58.4414H122.661L123.408 61.7736H126.765Z" fill="white"/>
<path d="M148.401 61.7736L149.147 58.4414H144.297L145.043 61.7736H148.401Z" fill="white"/>
<path d="M116.673 4.22632H104.367L101.632 14.4962H119.408L116.673 4.22632Z" fill="#E95627"/>
<path d="M113.146 18.0145H107.895V57.0736H113.146V18.0145Z" fill="white"/>
</svg>
