<svg width="24" height="24" viewBox="0 0 24 24" fill="none" xmlns="http://www.w3.org/2000/svg">
<path fill-rule="evenodd" clip-rule="evenodd" d="M12 0C18.6274 0 24 5.3726 24 12C24 18.6274 18.6274 24 12 24C5.3726 24 0 18.6274 0 12C0 5.3726 5.3726 0 12 0ZM15.1971 10.4792C15.1387 10.0051 14.9929 9.63275 14.7341 9.30295C14.3981 8.8783 13.9686 8.62405 13.3328 8.4732C12.9184 8.37265 12.7509 8.3842 12.6011 8.5211C12.4615 8.64935 12.4342 8.9065 12.5409 9.073C12.616 9.19385 12.7025 9.23715 12.9432 9.2844C13.2638 9.34335 13.4853 9.4199 13.6868 9.5351C14.1145 9.7821 14.3137 10.1685 14.335 10.7942C14.345 11.088 14.3704 11.1783 14.473 11.2825C14.6631 11.473 15.0016 11.436 15.1452 11.208C15.1979 11.1221 15.2059 11.0847 15.2114 10.8853C15.2151 10.7618 15.2099 10.5779 15.1971 10.4792ZM15.2028 7.5701C16.2197 8.3924 16.7878 9.56115 16.8723 11.0139C16.9078 11.586 16.8607 11.7724 16.6588 11.8785C16.4767 11.9768 16.2703 11.9445 16.1287 11.7964C16.0349 11.7001 15.9988 11.5683 16.0002 11.3351C16.0044 10.6902 15.8558 9.9701 15.6142 9.47035C15.3347 8.88875 14.9024 8.3938 14.3588 8.03195C13.8826 7.7141 13.2523 7.49945 12.6413 7.446C12.2449 7.4113 12.1034 7.34415 12.0273 7.15415C11.9802 7.0405 11.9926 6.844 12.0479 6.756C12.1001 6.6748 12.2174 6.5851 12.3003 6.56135C12.3881 6.53575 12.9001 6.5805 13.1782 6.6358C13.9373 6.7903 14.6298 7.108 15.2028 7.5701ZM18.7261 16.6082C18.6977 16.5252 18.6314 16.397 18.584 16.3235C18.2856 15.8729 16.6823 14.6181 15.8818 14.2078C15.4247 13.9729 15.086 13.8947 14.835 13.9682C14.5649 14.0441 14.4228 14.1698 13.9705 14.7319C13.7881 14.9573 13.6011 15.1684 13.5513 15.2016C13.4282 15.287 13.1866 15.3558 13.0161 15.3558C12.6206 15.3534 11.903 15.0972 11.3511 14.7604C10.9225 14.4995 10.373 14.0322 9.95145 13.5697C9.45405 13.0266 9.1154 12.5475 8.84775 12.0066C8.502 11.3117 8.4144 10.8871 8.55885 10.5764C8.59435 10.4981 8.64175 10.4151 8.663 10.389C8.68435 10.3653 8.907 10.1826 9.15325 9.98335C9.63645 9.5991 9.7146 9.51135 9.80455 9.24805C9.91825 8.9136 9.8875 8.57205 9.7122 8.22815C9.5772 7.9672 9.22435 7.39795 8.96855 7.0303C8.6299 6.54645 7.78675 5.5123 7.6186 5.3723C7.31545 5.12565 6.92705 5.08295 6.49835 5.249C6.04605 5.42455 5.19815 6.10765 4.83578 6.5844C4.50895 7.0161 4.38346 7.32205 4.3645 7.7253C4.34794 8.05735 4.37635 8.1949 4.55161 8.6195C5.9229 11.9497 7.9691 14.6086 10.7803 16.7197C12.2487 17.8226 13.7715 18.6622 15.3512 19.2363C16.2725 19.5707 16.6728 19.5873 17.1441 19.3122C17.343 19.1936 17.8356 18.6883 18.1103 18.3207C18.5651 17.7087 18.7332 17.4265 18.7806 17.2012C18.8137 17.047 18.7877 16.7789 18.7261 16.6082ZM18.1206 9.10025C18.409 9.85175 18.5474 10.5258 18.5777 11.3475C18.5826 11.5098 18.5803 11.8072 18.5698 12.0087C18.5479 12.3949 18.527 12.4716 18.4158 12.5738C18.2371 12.7415 17.8887 12.7015 17.7566 12.4994C17.6876 12.391 17.6779 12.3116 17.6912 11.8604C17.7296 10.5257 17.4596 9.48055 16.8093 8.43555C16.0322 7.18185 14.8699 6.33725 13.3584 5.9241C12.9729 5.8189 12.6481 5.7548 12.1429 5.6868C11.8138 5.64375 11.7417 5.6255 11.6605 5.5755C11.4151 5.41835 11.4119 5.02045 11.6565 4.86089C11.7827 4.77667 11.8758 4.77291 12.2872 4.8256C13.4936 4.97636 14.5701 5.33485 15.4546 5.87655C16.0886 6.2653 16.4884 6.6146 17.0031 7.2263C17.5475 7.8787 17.8358 8.3611 18.1206 9.10025Z" fill="#272323"/>
</svg>
